<svg width="298" height="298" xmlns="http://www.w3.org/2000/svg" xmlns:xlink="http://www.w3.org/1999/xlink" xml:space="preserve" overflow="hidden"><g><path d="M31.0417 173.213 42.5271 176.006C44.3896 176.627 45.9417 177.869 46.8729 179.731 52.15 191.838 60.2208 202.702 70.1542 211.704 71.0854 212.635 72.0167 213.877 72.3271 215.429L76.9833 243.677C77.6042 246.781 80.0875 248.954 83.1917 248.954L103.679 248.954C106.783 248.954 109.267 246.781 109.888 243.677L111.44 233.744C113.923 234.365 116.406 234.985 118.89 235.296L121.373 235.606C125.408 236.227 129.754 236.537 133.79 236.537 142.171 236.537 150.863 235.296 158.933 233.123L160.796 243.677C161.417 246.781 163.9 248.954 167.004 248.954L187.492 248.954C190.596 248.954 193.079 246.781 193.7 243.677L198.356 215.429C198.667 213.877 199.287 212.635 200.529 211.704 201.46 210.773 202.392 209.842 203.323 209.221L206.117 206.738C221.948 190.906 232.812 171.04 232.812 149 232.812 143.723 232.192 138.756 230.95 133.79L229.708 129.754C234.054 128.202 238.4 127.271 243.056 127.271 240.883 130.996 239.331 135.031 239.021 139.067 238.4 144.033 239.952 148.69 242.746 152.415 245.229 155.208 248.954 156.76 252.679 156.45 257.646 156.14 262.302 153.035 263.854 148.069 266.648 141.55 265.096 134.1 260.129 128.823 258.577 127.271 257.025 125.719 255.162 124.788 259.819 123.235 265.096 122.615 270.062 123.235 271.925 123.235 273.167 121.994 273.477 120.442 273.477 118.579 272.235 117.338 270.683 117.027L270.683 117.027C260.129 116.406 252.99 118.269 248.333 121.683 241.504 120.131 234.365 120.752 227.846 123.546L227.225 121.683C212.635 87.2271 171.971 62.0833 133.479 62.0833 120.131 62.0833 106.783 65.1875 94.6771 70.775L56.4958 52.7708C56.1854 52.4604 55.5646 52.4604 55.2542 52.4604 53.3917 52.4604 52.15 53.7021 52.15 55.5646 52.15 55.875 52.15 56.1854 52.15 56.4958L64.5667 91.5729C63.6354 92.5042 62.7042 93.7458 61.4625 94.9875 61.4625 94.9875 61.1521 95.2979 61.1521 95.2979 55.2542 102.127 50.2875 109.888 46.5625 118.269 45.9417 120.131 44.0792 121.683 42.2167 121.994L31.0417 124.788C25.4542 126.029 21.4188 131.306 21.7292 136.894L21.7292 161.106C21.7292 166.694 25.4542 171.66 31.0417 173.213ZM245.229 139.688C245.54 135.652 247.092 131.927 249.575 128.823 252.058 130.065 254.231 131.617 255.783 133.479 258.888 136.583 260.129 141.55 258.267 145.896 257.646 148.379 255.162 150.242 252.679 150.242 250.817 150.242 248.644 149.621 247.402 148.069 245.54 145.896 244.919 142.792 245.229 139.688ZM27.9375 136.894C27.6271 134.1 29.8 131.617 32.2833 130.996L32.2833 130.996 32.2833 130.996 43.4583 128.202 43.4583 128.202 43.4583 128.202C47.1833 127.271 50.5979 124.477 51.8396 120.752 54.9438 113.612 59.2896 107.094 64.2563 101.196L64.2563 101.196C67.6708 97.4708 71.0854 94.0563 75.1208 90.9521 76.3625 90.0208 76.6729 87.8479 75.4313 86.6063 74.5 85.3646 72.3271 85.0542 71.0854 86.2958L71.0854 86.2958C71.0854 86.2958 70.1542 86.9167 69.2229 87.8479L60.2208 62.0833C60.2208 62.0833 60.2208 62.0833 60.2208 62.0833 60.2208 62.0833 60.2208 62.0833 60.2208 62.0833L91.5729 76.9833 94.0563 78.225 96.5396 76.9833C108.646 71.0854 121.062 68.2917 133.479 68.2917 170.108 68.2917 207.979 92.1938 221.327 124.167L225.052 135.652C226.294 139.998 226.604 144.654 226.604 149.31 226.604 168.867 216.981 188.423 198.977 204.875 193.079 210.152 185.319 216.05 185.008 216.05 183.767 216.981 183.456 219.154 184.388 220.396 185.008 221.017 185.94 221.638 186.871 221.638 187.492 221.638 188.113 221.327 188.733 221.017 188.733 221.017 189.665 220.085 191.217 219.154L187.181 242.746C187.181 242.746 187.181 243.056 187.181 243.056L187.181 243.056 166.694 243.056C166.694 243.056 166.694 243.056 166.694 242.746L164.831 232.192 163.59 225.363 157.071 227.225C149.31 229.398 141.55 230.329 133.479 230.329 128.823 230.329 124.167 230.019 119.51 229.088 112.681 227.846 106.163 225.673 99.6437 223.19 98.0917 222.569 96.2292 223.19 95.6083 224.742 94.9875 226.294 95.6083 228.156 97.1604 228.777 99.0229 229.708 101.817 230.64 104.921 231.571L105.231 232.812 103.679 242.435C103.679 242.746 103.679 242.746 103.679 242.746L103.679 242.746 83.1917 242.746C83.1917 242.746 83.1917 242.435 83.1917 242.435L78.5354 214.188 78.5354 214.188 78.5354 214.188C77.9146 211.704 76.6729 209.221 74.8104 207.358L74.8104 207.358 74.8104 207.358C65.4979 198.977 58.0479 188.733 53.0813 177.558L53.0813 177.558 53.0813 177.558C51.5292 174.454 48.7354 171.971 45.0104 170.729L44.7 170.729 44.3896 170.729 32.9042 167.935C30.1104 167.315 28.2479 164.831 28.2479 161.727L28.2479 136.894Z" stroke="#FFFFFF" stroke-width="3.10417"/><path d="M113.612 85.9854C119.51 84.4333 125.719 83.8125 131.927 83.8125 144.344 84.1229 156.76 86.6063 168.246 91.8833 169.798 92.5042 171.66 91.8833 172.281 90.3313 172.902 88.7792 172.281 86.9167 170.729 86.2958L170.729 86.2958C158.623 80.7083 145.275 77.9146 131.927 77.9146 125.098 77.9146 118.269 78.8458 111.75 80.3979 110.198 80.7083 108.956 82.5708 109.577 84.1229 110.198 85.675 111.75 86.9167 113.302 86.2958L113.302 86.2958C113.302 85.9854 113.302 85.9854 113.612 85.9854Z" stroke="#FFFFFF" stroke-width="3.10417"/></g></svg>