<?xml version="1.0" encoding="UTF-8" standalone="no"?>
<!-- Generator: Fusion 360, Shaper Origin Export Add-In, Version 1.6.10  -->

<svg
   shaper:fusionaddin="version:1.6.10"
   width="2.0013657cm"
   height="3.6609826cm"
   version="1.1"
   x="0cm"
   y="0cm"
   viewBox="0 0 2.0013657 3.6609826"
   enable-background="new 0 0 2.0013657 3.6609826"
   xml:space="preserve"
   id="svg82"
   sodipodi:docname="dollar.svg"
   inkscape:version="1.2.2 (b0a8486541, 2022-12-01)"
   xmlns:inkscape="http://www.inkscape.org/namespaces/inkscape"
   xmlns:sodipodi="http://sodipodi.sourceforge.net/DTD/sodipodi-0.dtd"
   xmlns="http://www.w3.org/2000/svg"
   xmlns:svg="http://www.w3.org/2000/svg"
   xmlns:shaper="http://www.shapertools.com/namespaces/shaper"><defs
     id="defs86" /><sodipodi:namedview
     id="namedview84"
     pagecolor="#ffffff"
     bordercolor="#000000"
     borderopacity="0.25"
     inkscape:showpageshadow="2"
     inkscape:pageopacity="0.0"
     inkscape:pagecheckerboard="0"
     inkscape:deskcolor="#d1d1d1"
     inkscape:document-units="cm"
     showgrid="false"
     inkscape:zoom="5.6568543"
     inkscape:cx="34.029514"
     inkscape:cy="79.019183"
     inkscape:window-width="1920"
     inkscape:window-height="1011"
     inkscape:window-x="0"
     inkscape:window-y="0"
     inkscape:window-maximized="1"
     inkscape:current-layer="svg82" /><path
     id="path76"
     d="M 19.826029 5.4991635 L 19.826029 5.2965919 L 19.782621 5.2914759 L 19.740246 5.2848613 L 19.699008 5.2767481 L 19.658804 5.2670846 L 19.619736 5.2559225 L 19.581754 5.2432618 L 19.544909 5.2291025 L 19.509097 5.2134445 L 19.474422 5.1962363 L 19.440833 5.1775294 L 19.408328 5.1573239 L 19.376909 5.1356198 L 19.346627 5.1123654 L 19.317429 5.0876124 L 19.289317 5.0613608 L 19.262291 5.0336105 L 19.236607 5.0046717 L 19.21263 4.9749061 L 19.190305 4.944262 L 19.169583 4.912791 L 19.150566 4.8804933 L 19.133203 4.8473687 L 19.117493 4.8134172 L 19.103437 4.7785873 L 19.091035 4.7429306 L 19.080234 4.706447 L 19.071139 4.669085 L 19.063698 4.6308961 L 19.05791 4.5919321 L 19.053776 4.5520378 L 19.051296 4.5113685 L 19.050469 4.4698206 L 19.051192 4.4287896 L 19.053414 4.3884819 L 19.057032 4.3490011 L 19.062148 4.3102955 L 19.068762 4.2723133 L 19.076824 4.235158 L 19.086332 4.1987778 L 19.097288 4.163121 L 19.10969 4.1282911 L 19.123591 4.0941847 L 19.138991 4.060905 L 19.155785 4.0284006 L 19.174079 3.9966196 L 19.193819 3.9656654 L 19.215058 3.9354863 L 19.237693 3.9060308 L 19.261929 3.8774537 L 19.28787 3.8498068 L 19.315466 3.8230901 L 19.344714 3.7972519 L 19.375617 3.7723955 L 19.408225 3.7484177 L 19.442486 3.7253183 L 19.478401 3.7032008 L 19.516022 3.6819618 L 19.555296 3.6617046 L 19.596275 3.6423259 L 19.638857 3.6238258 L 19.683143 3.6063075 L 19.729135 3.5896677 L 19.776729 3.573958 L 19.826029 3.5591786 L 19.826029 2.7017632 L 19.798744 2.7160776 L 19.772079 2.732459 L 19.746034 2.7508558 L 19.720661 2.7713197 L 19.695908 2.7938506 L 19.671826 2.8183969 L 19.648314 2.8450103 L 19.625524 2.873639 L 19.603872 2.9040247 L 19.58408 2.9358058 L 19.566045 2.968982 L 19.549767 3.0036052 L 19.535349 3.0396237 L 19.522688 3.0769858 L 19.511784 3.1158464 L 19.502741 3.1560507 L 18.968613 3.0987415 L 18.976933 3.0490805 L 18.986442 3.0008147 L 18.997242 2.9539959 L 19.009283 2.9085723 L 19.022564 2.8645956 L 19.037085 2.8220142 L 19.052898 2.7808798 L 19.069899 2.7411406 L 19.088193 2.7028484 L 19.107726 2.6659514 L 19.128449 2.6305014 L 19.150463 2.5964983 L 19.173769 2.5638905 L 19.198263 2.5327296 L 19.223998 2.502964 L 19.251025 2.4745936 L 19.279137 2.4476702 L 19.308334 2.422142 L 19.338565 2.3980091 L 19.369829 2.3752198 L 19.402127 2.3538774 L 19.435458 2.3338787 L 19.469875 2.3152752 L 19.505273 2.2981186 L 19.541757 2.2823056 L 19.579222 2.2678879 L 19.617773 2.2548654 L 19.657357 2.2432382 L 19.697975 2.2330063 L 19.739626 2.2241696 L 19.782311 2.2166765 L 19.826029 2.2106304 L 19.826029 1.8381983 L 20.122755 1.8381983 L 20.122755 2.2208623 L 20.171951 2.2287688 L 20.219803 2.2382256 L 20.26626 2.2492327 L 20.311374 2.26179 L 20.355092 2.275846 L 20.397467 2.2914523 L 20.438446 2.3086089 L 20.478082 2.3272641 L 20.516323 2.3474696 L 20.55322 2.3692253 L 20.588773 2.3924797 L 20.622931 2.4172844 L 20.655694 2.4436394 L 20.687165 2.4715447 L 20.717189 2.5009486 L 20.745921 2.5319028 L 20.773051 2.5640972 L 20.798424 2.5971701 L 20.82204 2.6311732 L 20.843951 2.6660548 L 20.864053 2.7018665 L 20.88245 2.7386085 L 20.89909 2.7762806 L 20.913973 2.8148312 L 20.927099 2.8542603 L 20.938467 2.8946713 L 20.948079 2.9359608 L 20.955986 2.9781288 L 20.962083 3.0212786 L 20.966476 3.0652552 L 20.969111 3.1102137 L 20.96999 3.1560507 L 20.969266 3.1970301 L 20.967199 3.2370794 L 20.963737 3.2761467 L 20.958828 3.3143356 L 20.952575 3.3515427 L 20.944927 3.3878712 L 20.935884 3.4232179 L 20.925445 3.4576344 L 20.913663 3.4911207 L 20.900433 3.5236768 L 20.885809 3.5553028 L 20.869841 3.5859986 L 20.852426 3.6157126 L 20.833668 3.644548 L 20.813514 3.6724016 L 20.791965 3.6993767 L 20.780492 3.7125542 L 20.768452 3.725525 L 20.755791 3.7383924 L 20.742562 3.7511048 L 20.728661 3.7636105 L 20.714192 3.7760129 L 20.69905 3.7882602 L 20.683341 3.8003525 L 20.667011 3.8122897 L 20.650113 3.8240719 L 20.632543 3.8356475 L 20.614404 3.8471196 L 20.595594 3.8584368 L 20.576216 3.8695989 L 20.556217 3.880606 L 20.53565 3.891458 L 20.514411 3.902155 L 20.492603 3.912697 L 20.470124 3.923084 L 20.447076 3.9333676 L 20.423408 3.9434445 L 20.399172 3.9533664 L 20.374264 3.9631332 L 20.348788 3.972745 L 20.322639 3.9822018 L 20.295923 3.9915553 L 20.268586 4.000702 L 20.24068 4.0096937 L 20.212103 4.0185304 L 20.182958 4.0272637 L 20.153192 4.0357903 L 20.122755 4.0441619 L 20.122755 4.8443198 L 20.146991 4.8329509 L 20.170039 4.8203936 L 20.191898 4.8066476 L 20.212568 4.7916098 L 20.23205 4.7754351 L 20.250344 4.7579684 L 20.267501 4.7393649 L 20.283417 4.7194695 L 20.298196 4.6984372 L 20.311736 4.676113 L 20.324138 4.6526519 L 20.335352 4.6278989 L 20.345377 4.602009 L 20.354214 4.5748272 L 20.361862 4.5464568 L 20.368321 4.5168979 L 20.886067 4.584439 L 20.878884 4.6223178 L 20.870616 4.6592148 L 20.861211 4.6951816 L 20.850772 4.7301665 L 20.839249 4.7641696 L 20.826588 4.7972425 L 20.812894 4.8293336 L 20.798062 4.8604428 L 20.782198 4.8905702 L 20.765196 4.9197673 L 20.747161 4.9479827 L 20.727989 4.9752162 L 20.707732 5.0015195 L 20.686441 5.0268409 L 20.664014 5.0511805 L 20.640501 5.0745383 L 20.615955 5.0968625 L 20.590323 5.1180498 L 20.56371 5.1381519 L 20.536011 5.1571172 L 20.507279 5.1748939 L 20.477514 5.1916371 L 20.446714 5.2071917 L 20.414882 5.2216094 L 20.382015 5.2349419 L 20.348116 5.2471375 L 20.313131 5.2581963 L 20.277164 5.2681182 L 20.240112 5.2769032 L 20.202026 5.284603 L 20.162907 5.2911659 L 20.122755 5.2965919 L 20.122755 5.4991635 L 19.826029 5.4991635 z M 19.80727 4.8231324 L 19.80727 4.1722677 L 19.779675 4.185962 L 19.753888 4.2006898 L 19.729962 4.2163994 L 19.707793 4.2331943 L 19.687433 4.250971 L 19.668932 4.2698329 L 19.652189 4.2896766 L 19.637255 4.3105539 L 19.624129 4.3321546 L 19.612708 4.3542205 L 19.603097 4.3766997 L 19.59519 4.3996441 L 19.589092 4.4230535 L 19.5847 4.4468763 L 19.582064 4.4711126 L 19.581186 4.4958139 L 19.582116 4.522789 L 19.58501 4.5491956 L 19.589816 4.5750339 L 19.596534 4.600252 L 19.605164 4.6248499 L 19.615706 4.6488795 L 19.62816 4.6723406 L 19.642526 4.6952332 L 19.658494 4.716989 L 19.675805 4.7370912 L 19.694461 4.7555396 L 19.714356 4.7723345 L 19.735595 4.7875274 L 19.758178 4.8010149 L 19.782052 4.8129005 L 19.80727 4.8231324 z M 20.141772 3.4453354 L 20.161977 3.4389275 L 20.181408 3.4321579 L 20.200166 3.4250782 L 20.21815 3.4176368 L 20.235461 3.4098853 L 20.251998 3.4017721 L 20.267862 3.3932972 L 20.283003 3.3845639 L 20.297421 3.3754172 L 20.311115 3.3659604 L 20.324086 3.3561419 L 20.336334 3.3460133 L 20.347857 3.3355746 L 20.358709 3.3247226 L 20.368786 3.3136121 L 20.37814 3.3020883 L 20.386873 3.2903061 L 20.395038 3.2782138 L 20.402634 3.2658631 L 20.409662 3.2532541 L 20.416174 3.240335 L 20.422065 3.2271575 L 20.427439 3.2137216 L 20.432245 3.1999757 L 20.436482 3.1859714 L 20.440151 3.171657 L 20.4432 3.1570842 L 20.445733 3.1422531 L 20.447696 3.1271119 L 20.449092 3.1117123 L 20.44997 3.0960027 L 20.450228 3.0800347 L 20.449918 3.0621546 L 20.448885 3.0445846 L 20.447231 3.0273247 L 20.444854 3.0103232 L 20.441857 2.99358 L 20.438188 2.9771986 L 20.433795 2.9610755 L 20.428783 2.9452625 L 20.423047 2.9297079 L 20.41669 2.9144634 L 20.409662 2.8995289 L 20.401963 2.8848528 L 20.393591 2.8704867 L 20.384548 2.8564308 L 20.374832 2.8426331 L 20.364446 2.8291973 L 20.35349 2.8161231 L 20.342173 2.8037208 L 20.330442 2.7919386 L 20.31835 2.7808281 L 20.305844 2.7702861 L 20.292925 2.7603643 L 20.279593 2.7510625 L 20.265847 2.7424325 L 20.251739 2.734371 L 20.237218 2.7269813 L 20.222335 2.72016 L 20.206987 2.7140105 L 20.191278 2.7084811 L 20.175155 2.7035202 L 20.15867 2.699231 L 20.141772 2.695562 L 20.141772 3.4453354 z "
     transform="matrix(1,0,0,-1,-18.9686134,5.4991635)"
     style="fill:#6d712e;fill-opacity:1" /></svg>
