<?xml version="1.0" encoding="utf-8"?>
<!-- Generator: Fusion 360, Shaper Origin Export Add-In, Version 1.6.10  -->
<svg xmlns="http://www.w3.org/2000/svg" xmlns:xlink="http://www.w3.org/1999/xlink" xmlns:shaper="http://www.shapertools.com/namespaces/shaper" shaper:fusionaddin="version:1.6.10" width="2.0013657cm" height="3.6609826cm" version="1.1" x="0cm" y="0cm" viewBox="0 0 2.0013657 3.6609826" enable-background="new 0 0 2.0013657 3.6609826" xml:space="preserve"><path d="M19.8260505,2.7017554 L19.8260505,3.5591907 19.8260505,3.5591907 19.7767493,3.573975 19.7291187,3.5896786 19.6831589,3.6063014 19.6388697,3.6238436 19.5962513,3.642305 19.5553035,3.6616857 19.5160264,3.6819856 19.47842,3.7032049 19.4424843,3.7253434 19.4082193,3.7484012 19.3756249,3.7723783 19.3447013,3.7972747 19.3154483,3.8230904 19.287866,3.8498253 19.2619545,3.8774795 19.2377136,3.906053 19.2377136,3.906053 19.2150394,3.9354737 19.1938281,3.9656699 19.1740797,3.9966414 19.1557941,4.0283884 19.1389714,4.0609107 19.1236115,4.0942084 19.1097144,4.1282815 19.0972802,4.16313 19.0863089,4.1987538 19.0768004,4.2351531 19.0687547,4.2723277 19.0621719,4.3102778 19.057052,4.3490032 19.0533948,4.388504 19.0512006,4.4287803 19.0504691,4.4698319 19.0504691,4.4698319 19.0512965,4.5113631 19.0537785,4.5520549 19.0579153,4.5919075 19.0637067,4.6309207 19.0711529,4.6690946 19.0802537,4.7064291 19.0910093,4.7429243 19.1034195,4.7785802 19.1174845,4.8133967 19.1332041,4.8473739 19.1505785,4.8805117 19.1696075,4.9128103 19.1902912,4.9442694 19.2126297,4.9748893 19.2366228,5.0046698 19.2622707,5.033611 19.2622707,5.033611 19.2892934,5.061377 19.3174113,5.0876323 19.3466243,5.1123768 19.3769325,5.1356104 19.4083358,5.1573333 19.4408342,5.1775453 19.4744277,5.1962466 19.5091164,5.213437 19.5449002,5.2291166 19.5817791,5.2432854 19.6197532,5.2559434 19.6588224,5.2670907 19.6989867,5.276727 19.7402462,5.2848526 19.7826008,5.2914674 19.8260505,5.2965714 19.8260505,5.4991635 20.1227767,5.4991635 20.1227767,5.2965714 20.1227767,5.2965714 20.162929,5.2911477 20.202042,5.2845969 20.2401159,5.2769189 20.2771506,5.2681139 20.3131461,5.2581817 20.3481025,5.2471224 20.3820197,5.2349361 20.4148977,5.2216226 20.4467365,5.207182 20.4775361,5.1916142 20.5072966,5.1749194 20.5360179,5.1570975 20.5637,5.1381484 20.5903429,5.1180723 20.6159467,5.096869 20.6405113,5.0745386 20.6405113,5.0745386 20.6640127,5.0511611 20.6864269,5.0268163 20.7077541,5.0015043 20.7279941,4.975225 20.7471469,4.9479785 20.7652126,4.9197648 20.7821912,4.8905838 20.7980826,4.8604356 20.8128868,4.8293201 20.826604,4.7972375 20.8392339,4.7641875 20.8507768,4.7301704 20.8612325,4.695186 20.870601,4.6592344 20.8788824,4.6223155 20.8860767,4.5844294 20.3683421,4.5168988 20.3683421,4.5168988 20.3618672,4.5464754 20.3542091,4.5748371 20.3453681,4.6019836 20.3353439,4.6279152 20.3241368,4.6526316 20.3117465,4.6761331 20.2981733,4.6984195 20.283417,4.7194909 20.2674776,4.7393472 20.2503552,4.7579885 20.2320497,4.7754147 20.2125612,4.7916259 20.1918897,4.806622 20.1700351,4.8204031 20.1469974,4.8329692 20.1227767,4.8443202 20.1227767,4.0441841 20.1227767,4.0441841 20.1531666,4.0357937 20.1829451,4.0272494 20.2121119,4.0185512 20.2406673,4.0096992 20.2686112,4.0006933 20.2959435,3.9915335 20.3226644,3.9822198 20.3487737,3.9727522 20.3742715,3.9631308 20.3991578,3.9533555 20.4234326,3.9434263 20.4470959,3.9333433 20.4701476,3.9231063 20.4925878,3.9127155 20.5144166,3.9021708 20.5356338,3.8914723 20.5562395,3.8806198 20.5762337,3.8696135 20.5956163,3.8584533 20.6143875,3.8471392 20.6325471,3.8356713 20.6500953,3.8240494 20.6670319,3.8122737 20.683357,3.8003441 20.6990706,3.7882607 20.7141726,3.7760233 20.7286632,3.7636321 20.7425422,3.751087 20.7558098,3.7383881 20.7684658,3.7255352 20.7805103,3.7125285 20.7919433,3.6993679 20.7919433,3.6993679 20.8135023,3.6724252 20.8336704,3.6445472 20.8524476,3.615734 20.8698339,3.5859855 20.8858293,3.5553018 20.9004338,3.5236827 20.9136474,3.4911284 20.9254701,3.4576389 20.9359019,3.4232141 20.9449428,3.387854 20.9525927,3.3515587 20.9588518,3.314328 20.96372,3.2761622 20.9671972,3.237061 20.9692836,3.1970246 20.969979,3.156053 20.969979,3.156053 20.9691037,3.1102092 20.9664778,3.0652766 20.9621012,3.0212554 20.9559741,2.9781454 20.9480963,2.9359467 20.9384679,2.8946593 20.9270889,2.8542831 20.9139592,2.8148183 20.899079,2.7762647 20.8824481,2.7386224 20.8640666,2.7018914 20.8439345,2.6660717 20.8220518,2.6311632 20.7984184,2.5971661 20.7730345,2.5640802 20.7458999,2.5319056 20.7458999,2.5319056 20.7172065,2.500954 20.6871463,2.4715372 20.6557191,2.4436552 20.622925,2.417308 20.588764,2.3924956 20.5532361,2.369218 20.5163413,2.3474751 20.4780795,2.3272671 20.4384509,2.3085938 20.3974553,2.2914554 20.3550928,2.2758517 20.3113634,2.2617828 20.2662671,2.2492487 20.2198039,2.2382494 20.1719738,2.2287849 20.1227767,2.2208551 20.1227767,1.8381809 19.8260505,1.8381809 19.8260505,2.2106232 19.8260505,2.2106232 19.7823168,2.2166904 19.7396222,2.2241485 19.6979669,2.2329975 19.6573508,2.2432374 19.6177738,2.2548682 19.5792361,2.2678899 19.5417376,2.2823025 19.5052783,2.298106 19.4698582,2.3153004 19.4354774,2.3338857 19.4021357,2.3538619 19.3698332,2.375229 19.33857,2.397987 19.3083459,2.4221359 19.279161,2.4476757 19.2510154,2.4746064 19.2510154,2.4746064 19.2240129,2.5029441 19.1982573,2.5327046 19.1737487,2.563888 19.1504872,2.5964943 19.1284726,2.6305234 19.107705,2.6659755 19.0881844,2.7028504 19.0699107,2.7411481 19.0528841,2.7808688 19.0371045,2.8220123 19.0225718,2.8645787 19.0092861,2.908568 18.9972475,2.9539801 18.9864558,3.0008152 18.9769111,3.0490731 18.9686134,3.0987538 19.5027206,3.156053 19.5027206,3.156053 19.5118013,3.1158287 19.5226726,3.0770113 19.5353346,3.0396008 19.5497873,3.0035972 19.5660305,2.9690005 19.5840645,2.9358107 19.603889,2.9040279 19.6255042,2.8736519 19.6255042,2.8736519 19.6483341,2.8450025 19.6718035,2.8183994 19.6959124,2.7938428 19.7206609,2.7713325 19.746049,2.7508687 19.7720766,2.7324512 19.7987438,2.7160801 19.8260505,2.7017554z" transform="matrix(1,0,0,-1,-18.9686134,5.4991635)" fill="rgb(109,113,46)" stroke-linecap="round" stroke-linejoin="round" /><path d="M19.8260505,4.8504595 L19.8260505,4.8504595 19.7966332,4.8393323 19.7687509,4.8264145 19.7424035,4.8117061 19.717591,4.7952071 19.6943135,4.7769175 19.6725709,4.7568374 19.6523633,4.7349666 19.6336906,4.7113053 19.6336906,4.7113053 19.6169035,4.6864289 19.6023547,4.660913 19.5900442,4.6347577 19.579972,4.6079628 19.5721381,4.5805285 19.5665424,4.5524546 19.563185,4.5237413 19.5620658,4.4943885 19.5620658,4.4943885 19.563089,4.4675137 19.5661585,4.4411185 19.5712744,4.4152029 19.5784366,4.389767 19.5876452,4.3648106 19.5989001,4.3403339 19.6122013,4.3163369 19.6275489,4.2928194 19.6275489,4.2928194 19.6449758,4.2701014 19.6645129,4.2485026 19.6861602,4.2280228 19.7099178,4.2086621 19.7357856,4.1904205 19.7637636,4.1732979 19.793852,4.1572945 19.8260505,4.1424102 19.8260505,4.8504595z" transform="matrix(1,0,0,-1,-18.9686134,5.4991635)" fill="rgb(255,255,255)" stroke="rgb(109,113,46)" stroke-width="0.0010cm" stroke-linecap="round" stroke-linejoin="round" /><path d="M20.1227767,2.6731061 L20.1227767,2.6731061 20.1417375,2.677019 20.1602507,2.6815954 20.1783162,2.6868353 20.1959342,2.6927386 20.2131045,2.6993054 20.2298272,2.7065357 20.2461023,2.7144295 20.2619297,2.7229867 20.2773096,2.7322075 20.2922418,2.7420917 20.3067264,2.7526393 20.3207635,2.7638505 20.3343528,2.7757252 20.3474946,2.7882633 20.3601888,2.8014649 20.3724353,2.8153299 20.3724353,2.8153299 20.3840821,2.8296826 20.3949775,2.844347 20.4051215,2.8593231 20.414514,2.874611 20.4231552,2.8902107 20.431045,2.9061221 20.4381833,2.9223453 20.4445703,2.9388802 20.4502058,2.9557269 20.45509,2.9728854 20.4592227,2.9903556 20.462604,3.0081376 20.4652339,3.0262313 20.4671125,3.0446368 20.4682396,3.0633541 20.4686153,3.0823831 20.4686153,3.0823831 20.4682995,3.0993736 20.4673523,3.1160684 20.4657735,3.1324674 20.4635632,3.1485707 20.4607214,3.1643782 20.4572481,3.1798899 20.4531433,3.1951059 20.4484069,3.2100261 20.4430391,3.2246505 20.4370397,3.2389792 20.4304088,3.2530121 20.4231465,3.2667493 20.4152526,3.2801907 20.4067272,3.2933363 20.3975703,3.3061862 20.3877818,3.3187403 20.3877818,3.3187403 20.3772742,3.3309667 20.3659592,3.3428333 20.3538369,3.3543402 20.3409072,3.3654875 20.3271701,3.376275 20.3126257,3.3867027 20.2972739,3.3967708 20.2811148,3.4064792 20.2641483,3.4158278 20.2463744,3.4248167 20.2277932,3.4334459 20.2084046,3.4417154 20.1882087,3.4496251 20.1672054,3.4571752 20.1453947,3.4643655 20.1227767,3.4711961 20.1227767,2.6731061z" transform="matrix(1,0,0,-1,-18.9686134,5.4991635)" fill="rgb(255,255,255)" stroke="rgb(109,113,46)" stroke-width="0.0010cm" stroke-linecap="round" stroke-linejoin="round" /></svg>