<?xml version="1.0" encoding="utf-8"?>
<!-- Generator: Fusion 360, Shaper Origin Export Add-In, Version 1.6.10  -->
<svg xmlns="http://www.w3.org/2000/svg" xmlns:xlink="http://www.w3.org/1999/xlink" xmlns:shaper="http://www.shapertools.com/namespaces/shaper" shaper:fusionaddin="version:1.6.10" width="2.2653484cm" height="3.1023197cm" version="1.1" x="0cm" y="0cm" viewBox="0 0 2.2653484 3.1023197" enable-background="new 0 0 2.2653484 3.1023197" xml:space="preserve"><path d="M9.843785,5.1840202 L9.723048,4.6171717 9.723048,4.6171717 9.7006816,4.638235 9.6770683,4.6579395 9.6522079,4.676285 9.6261005,4.6932715 9.5987461,4.7088992 9.5701447,4.7231679 9.5402963,4.7360777 9.5092008,4.7476286 9.4768583,4.7578205 9.4432688,4.7666536 9.4084323,4.7741277 9.3723488,4.7802428 9.3350182,4.7849991 9.2964406,4.7883964 9.2566161,4.7904348 9.2155444,4.7911142 9.2155444,4.7911142 9.1743449,4.790179 9.1341367,4.7873732 9.0949196,4.7826969 9.0566938,4.7761501 9.0194592,4.7677327 8.9832158,4.7574448 8.9479636,4.7452864 8.9137027,4.7312575 8.880433,4.7153581 8.8481545,4.6975881 8.8168673,4.6779476 8.7865712,4.6564366 8.7572664,4.6330551 8.7289529,4.6078031 8.7016305,4.5806805 8.6752994,4.5516874 8.6752994,4.5516874 8.6609827,4.5345409 8.6471936,4.5168668 8.633932,4.4986652 8.621198,4.479936 8.6089916,4.4606791 8.5973128,4.4408947 8.5861616,4.4205827 8.5755379,4.3997432 8.5654418,4.378376 8.5558733,4.3564813 8.5468323,4.3340589 8.538319,4.311109 8.5303332,4.2876315 8.522875,4.2636264 8.5159443,4.2390938 8.5095413,4.2140335 9.6350534,4.2140335 9.5695693,3.8968443 8.4686143,3.8968443 8.4686143,3.8968443 8.4681347,3.8846618 8.4677189,3.871648 8.4673672,3.8578029 8.4670794,3.8431264 8.4668555,3.8276186 8.4666956,3.8112795 8.4665997,3.794109 8.4665677,3.7761072 8.4665677,3.7761072 8.4668235,3.7399119 8.4675908,3.7029491 8.4688696,3.6652189 8.47066,3.6267213 9.5122707,3.6267213 9.4467857,3.3095316 8.5136344,3.3095316 8.5136344,3.3095316 8.5202452,3.2825289 8.5272877,3.2562617 8.5347618,3.2307298 8.5426676,3.2059334 8.551005,3.1818724 8.5597741,3.1585468 8.5689749,3.1359567 8.5786073,3.1141019 8.5886714,3.0929826 8.5991671,3.0725987 8.6100945,3.0529502 8.6214535,3.0340372 8.6332442,3.0158595 8.6454665,2.9984173 8.6581206,2.9817105 8.6712062,2.9657392 8.6712062,2.9657392 8.6972657,2.9364982 8.7242843,2.9091438 8.7522623,2.8836758 8.7811994,2.8600944 8.8110959,2.8383995 8.8419515,2.8185911 8.8737664,2.8006693 8.9065406,2.7846339 8.940274,2.7704851 8.9749667,2.7582227 9.0106186,2.7478469 9.0472297,2.7393576 9.0848002,2.7327548 9.1233298,2.7280385 9.1628187,2.7252087 9.2032668,2.7242655 9.2032668,2.7242655 9.2517565,2.7252087 9.2989991,2.7280385 9.3449948,2.7327548 9.3897434,2.7393576 9.433245,2.7478469 9.4754996,2.7582227 9.5165071,2.7704851 9.5562677,2.7846339 9.5947813,2.8006693 9.6320478,2.8185911 9.6680674,2.8383995 9.7028399,2.8600944 9.7363654,2.8836758 9.7686439,2.9091438 9.7996754,2.9364982 9.8294599,2.9657392 9.8294599,2.3395452 9.8294599,2.3395452 9.7958624,2.3234379 9.7615774,2.3083697 9.726605,2.2943408 9.6909451,2.281351 9.6545978,2.2694005 9.6175631,2.2584891 9.5798408,2.2486168 9.5414312,2.2397838 9.5023341,2.2319899 9.4625495,2.2252353 9.4220775,2.2195198 9.380918,2.2148435 9.3390711,2.2112063 9.2965367,2.2086084 9.2533149,2.2070496 9.2094056,2.20653 9.2094056,2.20653 9.1722669,2.2069297 9.1355439,2.2081287 9.0992365,2.2101272 9.0633449,2.212925 9.0278689,2.2165221 8.9928085,2.2209187 8.9581638,2.2261145 8.9239349,2.2321098 8.8901215,2.2389045 8.8567239,2.2464985 8.8237419,2.2548918 8.7911756,2.2640846 8.759025,2.2740767 8.7272901,2.2848682 8.6959708,2.296459 8.6650672,2.3088492 8.6345792,2.3220388 8.604507,2.3360278 8.5748504,2.3508161 8.5456095,2.3664038 8.5167843,2.3827909 8.4883747,2.3999773 8.4603808,2.4179631 8.4328026,2.4367483 8.4056401,2.4563328 8.3788932,2.4767168 8.352562,2.4979 8.3266465,2.5198827 8.3011466,2.5426647 8.2760625,2.5662461 8.251394,2.5906268 8.2271411,2.615807 8.2271411,2.615807 8.1950944,2.6511311 8.1644385,2.6875264 8.1351736,2.7249928 8.1072995,2.7635304 8.0808164,2.8031392 8.0557242,2.8438191 8.0320229,2.8855701 8.0097124,2.9283923 7.9887929,2.9722857 7.9692643,3.0172502 7.9511266,3.0632859 7.9343798,3.1103927 7.9190239,3.1585707 7.9050589,3.2078199 7.8924848,3.2581401 7.8813016,3.3095316 7.5784366,3.3095316 7.6439211,3.6267213 7.8444669,3.6267213 7.8444669,3.6267213 7.8435715,3.6516616 7.842932,3.6773694 7.8425482,3.7038445 7.8424203,3.7310871 7.8424203,3.7310871 7.8424843,3.7542688 7.8426761,3.776747 7.8429959,3.7985217 7.8434436,3.8195931 7.8440192,3.839961 7.8447227,3.8596256 7.8455542,3.8785866 7.8465135,3.8968443 7.5784366,3.8968443 7.6439211,4.2140335 7.8874409,4.2140335 7.8874409,4.2140335 7.8988479,4.2644178 7.9115819,4.3137629 7.9256429,4.3620688 7.9410308,4.4093355 7.9577456,4.455563 7.9757874,4.5007514 7.9951561,4.5449005 8.0158518,4.5880105 8.0378745,4.6300813 8.0612241,4.6711129 8.0859006,4.7111054 8.1119042,4.7500586 8.1392346,4.7879727 8.167892,4.8248476 8.1978764,4.8606833 8.2291877,4.8954798 8.2291877,4.8954798 8.2535984,4.9209118 8.2784848,4.9455363 8.3038467,4.9693536 8.3296843,4.9923634 8.3559975,5.0145659 8.3827864,5.035961 8.4100508,5.0565488 8.4377909,5.0763292 8.4660066,5.0953022 8.494698,5.1134679 8.5238649,5.1308262 8.5535075,5.1473771 8.5836257,5.1631207 8.6142195,5.1780569 8.645289,5.1921858 8.6768341,5.2055073 8.7088548,5.2180214 8.7413511,5.2297281 8.7743231,5.2406275 8.8077707,5.2507196 8.8416939,5.2600043 8.8760927,5.2684816 8.9109672,5.2761515 8.9463172,5.2830141 8.9821429,5.2890693 9.0184443,5.2943172 9.0552212,5.2987577 9.0924738,5.3023908 9.130202,5.3052166 9.1684058,5.307235 9.2070853,5.308446 9.2462404,5.3088497 9.2462404,5.3088497 9.2888627,5.3083621 9.3307817,5.3068993 9.3719972,5.3044612 9.4125092,5.3010479 9.4523178,5.2966593 9.491423,5.2912956 9.5298247,5.2849566 9.567523,5.2776423 9.6045178,5.2693529 9.6408092,5.2600882 9.6763971,5.2498483 9.7112816,5.2386331 9.7454626,5.2264427 9.7789402,5.2132771 9.8117143,5.1991363 9.843785,5.1840202z" transform="matrix(1,0,0,-1,-7.5784366,5.3088497)" fill="rgb(0,0,128)" stroke-linecap="round" stroke-linejoin="round" /></svg>