<?xml version="1.0" encoding="utf-8"?>
<!-- Generator: Fusion 360, Shaper Origin Export Add-In, Version 1.6.10  -->
<svg xmlns="http://www.w3.org/2000/svg" xmlns:xlink="http://www.w3.org/1999/xlink" xmlns:shaper="http://www.shapertools.com/namespaces/shaper" shaper:fusionaddin="version:1.6.10" width="2.2387447cm" height="3.1023197cm" version="1.1" x="0cm" y="0cm" viewBox="0 0 2.2387447 3.1023197" enable-background="new 0 0 2.2387447 3.1023197" xml:space="preserve"><path d="M6.1930339,2.8409094 L6.4140436,2.3538698 6.4140436,2.3538698 6.3843231,2.3383781 6.3534834,2.3236217 6.3215247,2.3096008 6.2884468,2.2963152 6.2542497,2.2837651 6.2189336,2.2719504 6.1824983,2.2608712 6.1449439,2.2505273 6.1449439,2.2505273 6.106974,2.2411748 6.0692918,2.2330692 6.0318973,2.2262107 5.9947907,2.2205992 5.9579717,2.2162347 5.9214406,2.2131172 5.8851971,2.2112467 5.8492415,2.2106232 5.8492415,2.2106232 5.82574,2.2109629 5.8012794,2.2119821 5.7758594,2.2136808 5.7494803,2.2160589 5.7221418,2.2191165 5.6938442,2.2228535 5.6645873,2.22727 5.6343711,2.232366 5.6031958,2.2381414 5.5710611,2.2445963 5.5379672,2.2517307 5.5039141,2.2595445 5.4689018,2.2680378 5.4329302,2.2772106 5.3959993,2.2870628 5.3581092,2.2975945 5.3581092,2.2975945 5.320363,2.3081261 5.2838638,2.3179784 5.2486116,2.3271511 5.2146065,2.3356444 5.1818483,2.3434582 5.1503372,2.3505926 5.1200731,2.3570475 5.091056,2.3628229 5.0632859,2.3679189 5.0367628,2.3723354 5.0114867,2.3760725 4.9874577,2.37913 4.9646757,2.3815082 4.9431407,2.3832068 4.9228527,2.384226 4.9038117,2.3845657 4.9038117,2.3845657 4.8725643,2.3838703 4.841237,2.3817839 4.8098298,2.3783067 4.7783427,2.3734385 4.7467756,2.3671794 4.7151286,2.3595295 4.6834016,2.3504886 4.6515947,2.3400568 4.6197079,2.3282341 4.5877412,2.3150205 4.5556945,2.300416 4.5235679,2.2844206 4.4913613,2.2670343 4.4590748,2.2482571 4.4267084,2.228089 4.3942621,2.20653 4.1752989,2.7017554 4.1752989,2.7017554 4.2036965,2.722559 4.2310788,2.7435305 4.257446,2.7646698 4.2827979,2.7859769 4.3071347,2.807452 4.3304563,2.8290949 4.3527626,2.8509057 4.3740538,2.8728843 4.3943298,2.8950308 4.4135906,2.9173452 4.4318361,2.9398274 4.4490665,2.9624775 4.4652817,2.9852955 4.4804817,3.0082813 4.4946665,3.031435 4.5078361,3.0547566 4.5078361,3.0547566 4.5201024,3.0780942 4.5315774,3.1012959 4.542261,3.1243617 4.5521533,3.1472916 4.5612541,3.1700856 4.5695636,3.1927438 4.5770817,3.215266 4.5838084,3.2376523 4.5897437,3.2599028 4.5948877,3.2820173 4.5992403,3.303996 4.6028015,3.3258387 4.6055713,3.3475456 4.6075498,3.3691166 4.6087368,3.3905517 4.6091325,3.4118508 4.6091325,3.4118508 4.6086209,3.4398608 4.607086,3.4686381 4.604528,3.4981827 4.6009466,3.5284947 4.1752989,3.5284947 4.1752989,3.9807457 4.4965813,3.9807457 4.4965813,3.9807457 4.4864213,4.0109539 4.4769168,4.04121 4.4680678,4.0715142 4.4598742,4.1018662 4.4523362,4.1322662 4.4454536,4.1627142 4.4392265,4.1932102 4.4336549,4.2237541 4.4287388,4.2543459 4.4244781,4.2849858 4.420873,4.3156736 4.4179233,4.3464093 4.4156291,4.377193 4.4139904,4.4080247 4.4130072,4.4389043 4.4126794,4.4698319 4.4126794,4.4698319 4.413155,4.4976339 4.4145819,4.5252761 4.41696,4.5527584 4.4202894,4.5800809 4.42457,4.6072434 4.4298019,4.6342461 4.435985,4.661089 4.4431194,4.6877719 4.451205,4.7142949 4.4602419,4.7406581 4.47023,4.7668614 4.4811694,4.7929049 4.49306,4.8187884 4.5059018,4.8445121 4.5196949,4.8700759 4.5344393,4.8954798 4.5344393,4.8954798 4.550055,4.9204241 4.566462,4.9446091 4.5836605,4.9680346 4.6016502,4.9907007 4.6204314,5.0126074 4.640004,5.0337547 4.6603679,5.0541426 4.6815232,5.0737712 4.7034699,5.0926403 4.7262079,5.11075 4.7497373,5.1281003 4.7740581,5.1446912 4.7991703,5.1605227 4.8250738,5.1755948 4.8517687,5.1899075 4.879255,5.2034608 4.879255,5.2034608 4.9072969,5.2162228 4.9356585,5.2281614 4.9643398,5.2392766 4.993341,5.2495685 5.0226618,5.259037 5.0523024,5.2676822 5.0822628,5.275504 5.1125428,5.2825025 5.1431427,5.2886776 5.1740623,5.2940294 5.2053016,5.2985578 5.2368607,5.3022629 5.2687396,5.3051446 5.3009382,5.307203 5.3334565,5.308438 5.3662946,5.3088497 5.3662946,5.3088497 5.4160474,5.3080544 5.4645212,5.3056682 5.5117159,5.3016914 5.5576317,5.2961238 5.6022685,5.2889654 5.6456263,5.2802163 5.6877051,5.2698765 5.7285049,5.2579459 5.7680257,5.2444245 5.8062675,5.2293124 5.8432303,5.2126096 5.8789141,5.194316 5.9133189,5.1744317 5.9464447,5.1529567 5.9782916,5.1298909 6.0088594,5.1052343 6.0088594,5.1052343 6.0380603,5.0790909 6.0658064,5.0515647 6.0920977,5.0226555 6.1169341,4.9923634 6.1403157,4.9606884 6.1622423,4.9276305 6.1827142,4.8931897 6.2017312,4.857366 6.2192933,4.8201594 6.2354006,4.7815698 6.250053,4.7415974 6.2632506,4.700242 6.2749934,4.6575037 6.2852812,4.6133826 6.2941143,4.5678785 6.3014924,4.5209915 5.7469222,4.4391362 5.7469222,4.4391362 5.7418143,4.466027 5.7362107,4.4919585 5.7301115,4.5169308 5.7235167,4.5409438 5.7164263,4.5639976 5.7088403,4.5860922 5.7007587,4.6072275 5.6921814,4.6274035 5.6831086,4.6466204 5.6735402,4.6648779 5.6634761,4.6821763 5.6529164,4.6985154 5.6418612,4.7138952 5.6303103,4.7283158 5.6182638,4.7417772 5.6057217,4.7542793 5.6057217,4.7542793 5.5927319,4.7659261 5.5793425,4.7768215 5.5655534,4.7869655 5.5513646,4.7963581 5.5367761,4.8049993 5.521788,4.8128891 5.5064001,4.8200275 5.4906126,4.8264144 5.4744254,4.83205 5.4578385,4.8369341 5.4408519,4.8410669 5.4234657,4.8444482 5.4056797,4.8470782 5.3874941,4.8489567 5.3689088,4.8500838 5.3499238,4.8504595 5.3499238,4.8504595 5.3296758,4.8500318 5.3098594,4.8487488 5.2904747,4.8466105 5.2715216,4.8436169 5.2530002,4.8397679 5.2349104,4.8350636 5.2172523,4.829504 5.2000259,4.8230891 5.1832311,4.8158188 5.166868,4.8076932 5.1509366,4.7987123 5.1354368,4.7888761 5.1203687,4.7781845 5.1057322,4.7666377 5.0915274,4.7542354 5.0777542,4.7409779 5.0777542,4.7409779 5.0646206,4.7270729 5.0523344,4.7127282 5.0408955,4.6979439 5.0303038,4.6827199 5.0205596,4.6670563 5.0116626,4.650953 5.003613,4.63441 4.9964107,4.6174274 4.9900557,4.6000052 4.9845481,4.5821433 4.9798878,4.5638417 4.9760748,4.5451005 4.9731092,4.5259197 4.9709909,4.5062992 4.9697199,4.486239 4.9692962,4.4657392 4.9692962,4.4657392 4.9697598,4.4433888 4.9711507,4.4193118 4.9734689,4.3935082 4.9767144,4.3659779 4.9808871,4.336721 4.985987,4.3057375 4.9920143,4.2730274 4.9989688,4.2385906 4.9989688,4.2385906 5.0065947,4.2036741 5.0146363,4.1695249 5.0230936,4.1361432 5.0319665,4.1035289 5.0412552,4.071682 5.0509596,4.0406025 5.0610797,4.0102904 5.0716154,3.9807457 5.7100875,3.9807457 5.7100875,3.5284947 5.1657488,3.5284947 5.1657488,3.5284947 5.1684348,3.5059845 5.1703533,3.4834743 5.1715044,3.4609641 5.1718881,3.4384541 5.1718881,3.4384541 5.1709289,3.3984216 5.1680511,3.3591566 5.1632549,3.320659 5.1565403,3.2829287 5.1479071,3.2459659 5.1373555,3.2097704 5.1248853,3.1743424 5.1104967,3.1396817 5.1104967,3.1396817 5.1023192,3.1222075 5.0931344,3.1040618 5.0829424,3.0852447 5.0717432,3.0657561 5.0595368,3.045596 5.0463232,3.0247644 5.0321024,3.0032614 5.0168744,2.9810869 5.0006392,2.9582409 4.9833968,2.9347235 4.9651472,2.9105346 4.9458904,2.8856742 4.9256264,2.8601424 4.9043551,2.8339391 4.8820767,2.8070643 4.8587911,2.779518 4.8587911,2.779518 4.8730838,2.7864565 4.8878242,2.7929474 4.9030122,2.7989906 4.9186479,2.8045862 4.9347312,2.8097341 4.9512621,2.8144344 4.9682407,2.818687 4.985667,2.822492 5.0035409,2.8258494 5.0218624,2.8287591 5.0406316,2.8312211 5.0598484,2.8332355 5.0795129,2.8348023 5.099625,2.8359214 5.1201848,2.8365929 5.1411922,2.8368167 5.1411922,2.8368167 5.1761088,2.8363051 5.2092347,2.8347704 5.24057,2.8322124 5.2701146,2.8286313 5.2701146,2.8286313 5.2741275,2.8279998 5.2790036,2.8271285 5.2847431,2.8260174 5.2913459,2.8246665 5.298812,2.8230757 5.3071414,2.8212452 5.3163342,2.8191748 5.3263902,2.8168646 5.3373096,2.8143147 5.3490924,2.8115249 5.3617384,2.8084952 5.3752478,2.8052258 5.3896204,2.8017166 5.4048564,2.7979675 5.4209558,2.7939787 5.4379184,2.78975 5.4379184,2.78975 5.4682544,2.7820681 5.4973594,2.7748817 5.5252333,2.768191 5.5518762,2.7619959 5.5772881,2.7562964 5.601469,2.7510925 5.6244189,2.7463842 5.6461377,2.7421716 5.6666255,2.7384545 5.6858823,2.735233 5.7039081,2.7325072 5.7207028,2.7302769 5.7362665,2.7285423 5.7505992,2.7273033 5.7637009,2.7265599 5.7755716,2.7263121 5.7755716,2.7263121 5.7959075,2.7267597 5.8170108,2.7281027 5.8388816,2.7303409 5.8615197,2.7334744 5.8849252,2.7375032 5.9090981,2.7424273 5.9340384,2.7482467 5.9597461,2.7549614 5.9862212,2.7625714 6.0134637,2.7710767 6.0414736,2.7804772 6.0702509,2.7907731 6.0997955,2.8019642 6.1301076,2.8140506 6.1611871,2.8270324 6.1930339,2.8409094z" transform="matrix(1,0,0,-1,-4.1752989,5.3088497)" fill="rgb(220,220,220)" stroke-linecap="round" stroke-linejoin="round" /></svg>