<?xml version="1.0" encoding="utf-8"?>
<!-- Generator: Fusion 360, Shaper Origin Export Add-In, Version 1.6.10  -->
<svg xmlns="http://www.w3.org/2000/svg" xmlns:xlink="http://www.w3.org/1999/xlink" xmlns:shaper="http://www.shapertools.com/namespaces/shaper" shaper:fusionaddin="version:1.6.10" width="2.308322cm" height="3.0000002cm" version="1.1" x="0cm" y="0cm" viewBox="0 0 2.308322 3.0000002" enable-background="new 0 0 2.308322 3.0000002" xml:space="preserve"><path d="M12.0027206,2.8163528 L11.2435119,2.8163528 11.2435119,3.2686037 12.0027206,3.2686037 12.0027206,3.5141701 11.2435119,3.5141701 11.2435119,3.966421 11.7776191,3.966421 11.1411931,5.2576901 11.7714793,5.2576901 12.1807563,4.3859302 12.1807563,4.3859302 12.1994935,4.34561 12.2168239,4.3065049 12.2327473,4.2686147 12.2472639,4.2319396 12.2603736,4.1964796 12.2720764,4.1622346 12.2823724,4.1292046 12.2912614,4.0973896 12.2912614,4.0973896 12.3014933,4.1314428 12.3127485,4.1660716 12.3250268,4.2012758 12.3383283,4.2370556 12.3526531,4.273411 12.368001,4.3103419 12.3843722,4.3478483 12.4017665,4.3859302 12.8192289,5.2576901 13.4495151,5.2576901 12.8049037,3.966421 13.3471963,3.966421 13.3471963,3.5141701 12.5777557,3.5141701 12.5777557,3.2686037 13.3471963,3.2686037 13.3471963,2.8163528 12.5777557,2.8163528 12.5777557,2.2576899 12.0027206,2.2576899 12.0027206,2.8163528z" transform="matrix(1,0,0,-1,-11.1411931,5.2576901)" fill="rgb(0,0,0)" stroke-linecap="round" stroke-linejoin="round" /></svg>